<?xml version="1.0" standalone="no"?>
<!DOCTYPE svg PUBLIC "-//W3C//DTD SVG 20010904//EN"
 "http://www.w3.org/TR/2001/REC-SVG-20010904/DTD/svg10.dtd">
<svg version="1.0" xmlns="http://www.w3.org/2000/svg"
 width="260.000000pt" height="260.000000pt" viewBox="0 0 260.000000 260.000000"
 preserveAspectRatio="xMidYMid meet">
<metadata>
Created by potrace 1.11, written by Peter Selinger 2001-2013
</metadata>
<g transform="translate(0.000000,260.000000) scale(0.100000,-0.100000)"
fill="#000000" stroke="none">
<path d="M0 1300 l0 -1300 1300 0 1300 0 0 1300 0 1300 -1300 0 -1300 0 0
-1300z m763 112 c69 -196 128 -374 132 -395 9 -44 20 -41 29 8 6 28 143 426
248 718 9 25 14 27 70 27 33 0 58 -4 56 -9 -1 -5 -77 -216 -168 -470 l-165
-461 -56 0 -56 0 -161 453 c-88 248 -164 460 -167 470 -6 15 0 17 52 17 l60 0
126 -358z m1187 308 l0 -50 -205 0 -205 0 0 -170 0 -170 195 0 195 0 0 -50 0
-50 -195 0 -195 0 0 -200 0 -200 -55 0 -55 0 0 470 0 470 260 0 260 0 0 -50z"/>
</g>
</svg>
